<?xml version="1.0" standalone="no"?>
<!DOCTYPE svg PUBLIC "-//W3C//DTD SVG 20010904//EN"
 "http://www.w3.org/TR/2001/REC-SVG-20010904/DTD/svg10.dtd">
<svg version="1.0" xmlns="http://www.w3.org/2000/svg"
 width="445.000000pt" height="317.000000pt" viewBox="0 0 445.000000 317.000000"
 preserveAspectRatio="xMidYMid meet">

<g transform="translate(0.000000,317.000000) scale(0.100000,-0.100000)"
fill="#000000" stroke="none">
<path d="M1912 3145 c-521 -54 -1007 -242 -1356 -523 -43 -35 -104 -81 -136
-102 -76 -52 -141 -124 -168 -185 -13 -27 -30 -63 -39 -80 -96 -179 -119 -227
-144 -300 -49 -146 -62 -240 -56 -415 6 -162 20 -239 70 -370 199 -528 780
-949 1522 -1104 482 -100 1011 -79 1477 59 470 139 867 399 1116 730 74 99
176 309 207 425 159 614 -173 1212 -877 1579 -262 137 -564 229 -903 276 -157
22 -547 28 -713 10z m13 -390 c637 -85 1069 -185 1321 -305 133 -64 204 -128
229 -205 10 -34 15 -71 12 -92 -16 -98 -110 -207 -250 -292 -155 -93 -162 -94
-392 -60 -385 56 -800 44 -1128 -32 -49 -12 -86 -23 -84 -25 2 -2 42 5 88 15
182 43 311 55 589 55 276 0 418 -12 645 -55 302 -56 550 -136 774 -250 63 -32
118 -56 123 -53 5 3 7 1 6 -4 -2 -5 35 -38 82 -73 268 -203 322 -420 153 -617
-177 -208 -442 -393 -735 -516 -758 -317 -1680 -294 -2393 61 -510 254 -838
638 -920 1078 -25 133 -16 357 19 482 31 114 65 196 113 282 l38 66 6 -70 c6
-73 34 -175 49 -175 5 0 11 -8 14 -17 7 -21 57 -55 106 -72 60 -20 218 -31
325 -21 55 5 171 21 258 36 148 25 159 26 175 10 22 -21 21 -100 -1 -142 -24
-47 -93 -111 -150 -139 -49 -23 -208 -64 -253 -65 -12 0 -35 13 -52 30 -27 25
-40 30 -83 30 -72 0 -114 -15 -194 -68 -96 -65 -107 -88 -99 -218 6 -97 5
-105 -20 -155 -33 -66 -33 -95 0 -144 26 -40 105 -114 90 -85 -4 8 0 6 9 -5
14 -17 28 -20 101 -20 64 0 87 4 94 15 12 19 3 27 -12 12 -19 -19 -87 -14
-124 9 -39 24 -104 109 -104 135 0 11 11 39 25 63 23 39 25 53 25 164 0 108 2
124 22 153 28 41 150 115 199 121 32 5 42 1 71 -27 32 -31 34 -31 108 -27 250
16 436 134 448 284 4 49 2 57 -24 84 -34 36 -62 37 -206 9 -164 -33 -355 -52
-439 -46 -177 14 -242 70 -270 234 -28 158 39 298 190 398 35 23 39 29 29 43
-11 14 -11 14 3 3 14 -10 32 -5 115 37 185 92 418 155 669 180 126 13 467 6
610 -14z m1611 -614 c5 -6 25 -12 44 -14 20 -2 40 -6 45 -9 9 -5 66 -17 115
-23 8 -1 22 -5 30 -8 26 -10 503 -106 540 -109 29 -3 38 -9 51 -39 69 -150 82
-429 29 -632 -33 -131 -114 -312 -173 -387 l-19 -25 8 25 c5 14 9 61 9 105 0
68 -4 88 -29 137 -39 77 -140 186 -237 254 -90 63 -325 188 -339 179 -4 -3
-10 -1 -12 4 -7 18 -293 112 -433 141 -33 7 -63 16 -67 19 -4 3 23 22 60 40
167 85 296 205 341 319 14 34 21 38 37 23z"/>
<path d="M2098 2548 c-4 -10 -44 -13 -176 -13 -186 0 -197 -3 -245 -68 -47
-62 -10 -172 73 -219 43 -25 45 -33 30 -90 -24 -83 -140 -110 -140 -33 0 30
31 55 68 55 40 0 51 17 18 29 -33 13 -91 -4 -111 -32 -30 -43 -18 -100 28
-123 49 -26 114 -11 159 36 20 22 39 53 43 69 8 36 14 37 72 15 24 -9 46 -14
49 -11 15 14 -7 35 -50 47 -54 15 -54 13 -23 136 33 131 41 141 121 146 64 4
119 29 118 53 -1 15 -29 18 -34 3z m-206 -45 c3 -2 -8 -28 -26 -58 -18 -29
-39 -81 -46 -115 -7 -33 -16 -63 -21 -65 -11 -7 -68 43 -84 76 -20 38 -19 92
3 118 29 36 135 63 174 44z"/>
<path d="M1352 2527 c-53 -16 -118 -82 -152 -151 -60 -121 -49 -239 26 -306
68 -60 183 -34 268 61 59 66 88 142 89 241 2 63 -2 81 -19 105 -41 57 -128 77
-212 50z m145 -49 c27 -30 23 -154 -7 -233 -42 -109 -90 -160 -163 -172 -31
-5 -40 -1 -68 26 -31 31 -31 33 -26 104 3 40 12 92 20 117 l15 45 -5 -55 c-6
-66 10 -130 41 -166 33 -39 51 -23 27 24 -28 56 -34 96 -21 159 30 146 123
221 187 151z"/>
<path d="M1117 2519 c-25 -15 -65 -103 -73 -160 l-6 -47 -57 -6 c-31 -4 -75
-9 -98 -13 l-43 -5 6 33 c17 101 26 139 35 144 5 4 9 13 9 21 0 34 -125 1
-193 -51 -80 -61 -98 -156 -40 -217 49 -51 73 -29 27 25 -43 51 -22 116 57
178 19 15 44 30 56 33 l21 7 -20 -63 c-10 -35 -28 -126 -39 -203 -11 -77 -27
-150 -35 -162 -18 -29 -54 -31 -54 -4 0 26 -19 37 -36 20 -11 -11 -11 -19 -1
-39 10 -20 21 -26 55 -28 37 -3 47 1 76 30 26 26 37 50 50 105 9 40 16 81 16
92 0 35 25 48 111 55 45 4 84 5 86 2 6 -6 -27 -177 -38 -198 -6 -10 -21 -18
-34 -18 -25 0 -36 -25 -13 -32 11 -4 136 8 176 17 12 3 22 12 22 21 0 13 -8
15 -50 9 l-51 -7 21 44 c12 26 30 107 44 208 21 140 28 167 46 182 35 28 8 50
-33 27z"/>
<path d="M2229 2521 c-86 -28 -119 -95 -85 -173 6 -12 0 -18 -24 -23 -44 -10
-110 -75 -112 -111 -2 -49 3 -78 18 -101 8 -12 14 -40 14 -61 0 -49 19 -104
34 -99 7 2 10 23 8 55 l-4 51 49 -15 c123 -39 263 32 263 133 0 23 -8 38 -31
57 -57 49 -175 31 -258 -39 l-34 -29 8 25 c25 82 90 129 151 109 42 -14 104
-5 104 15 0 20 -15 26 -72 28 -57 3 -69 17 -61 74 16 105 193 98 193 -7 0 -54
30 -33 51 35 10 33 19 66 19 73 0 20 -31 14 -37 -8 -6 -24 -3 -24 -41 -5 -37
19 -118 27 -153 16z m106 -311 c36 -30 -1 -108 -62 -131 -57 -22 -183 1 -183
33 0 13 32 53 62 77 50 38 149 50 183 21z"/>
<path d="M2705 2461 c-46 -21 -105 -82 -135 -141 -11 -22 -23 -40 -27 -40 -3
0 -22 12 -40 26 -25 19 -38 23 -46 15 -13 -13 24 -57 56 -67 24 -8 19 -37 -22
-128 -27 -59 -32 -65 -63 -68 -53 -5 -34 -22 34 -31 35 -4 99 -14 143 -22 144
-27 206 -14 245 50 26 42 28 108 3 103 -12 -2 -20 -16 -24 -41 -3 -21 -15 -47
-26 -58 -22 -22 -37 -23 -185 -13 l-107 7 29 42 c16 23 36 60 45 82 l16 40 83
5 c140 9 246 81 246 167 0 78 -125 118 -225 72z m161 -36 c48 -31 19 -97 -59
-137 -49 -25 -187 -39 -187 -19 0 22 48 106 77 133 52 50 115 59 169 23z"/>
<path d="M1235 1593 c-119 -25 -157 -37 -170 -56 -8 -12 -15 -18 -15 -13 0 4
-14 -4 -31 -18 -17 -14 -38 -27 -47 -27 -9 -1 -26 -3 -37 -4 -100 -15 -191
-16 -292 -5 -129 15 -139 13 -165 -41 -16 -33 -44 -165 -55 -263 l-6 -49 78
-73 c43 -41 83 -74 89 -74 6 1 -21 31 -60 68 -88 82 -98 100 -85 150 5 20 15
71 21 112 16 99 37 149 67 161 16 6 58 3 125 -7 87 -14 117 -15 207 -4 116 13
145 23 207 70 30 23 63 36 127 48 47 10 89 21 93 25 8 7 -17 8 -51 0z"/>
<path d="M2215 1536 c-131 -42 -193 -124 -254 -337 -16 -54 -37 -113 -48 -131
-50 -86 -359 -245 -529 -273 -127 -20 -86 137 103 400 100 139 127 194 118
234 -15 68 -81 86 -283 78 -332 -14 -627 -124 -735 -274 -67 -94 -34 -274 45
-244 19 7 28 21 37 55 24 97 52 154 96 199 99 98 316 179 487 181 73 1 91 -2
115 -20 57 -43 47 -72 -95 -289 -160 -243 -168 -264 -130 -329 32 -54 87 -81
163 -80 48 1 86 12 186 53 161 65 171 65 190 4 14 -47 15 -48 56 -51 23 -2 99
9 169 23 147 30 178 30 182 -3 5 -30 -32 -103 -60 -122 -16 -10 -58 -15 -143
-17 -116 -2 -121 -3 -142 -28 -13 -14 -23 -37 -23 -50 0 -37 53 -89 121 -120
59 -26 70 -28 208 -27 147 0 201 10 201 36 0 19 -45 26 -179 26 -129 0 -175
16 -187 65 -11 44 -1 52 81 58 131 10 221 69 246 162 29 105 -54 135 -281 100
-52 -8 -98 -15 -102 -15 -17 0 -7 59 15 91 12 19 58 58 102 87 112 74 308 218
378 276 113 94 132 222 39 270 -42 21 -103 26 -147 12z m65 -116 c11 -26 10
-37 -5 -71 -18 -38 -85 -109 -104 -109 -19 0 -41 45 -41 85 0 67 51 124 111
125 20 0 30 -7 39 -30z m-192 -226 c2 -33 -2 -44 -29 -69 l-31 -30 7 49 c9 66
22 99 38 94 6 -3 13 -22 15 -44z"/>
<path d="M2997 990 c-32 -26 -70 -86 -62 -100 3 -5 0 -10 -8 -10 -8 0 -26 -17
-40 -37 -35 -49 -34 -40 8 61 19 47 35 87 35 90 0 3 -10 6 -22 6 -14 0 -47
-25 -90 -67 l-68 -67 21 53 c22 59 15 81 -27 81 -26 0 -98 -85 -90 -107 3 -7
-1 -13 -8 -13 -7 0 -25 -17 -39 -37 -35 -49 -34 -39 4 52 23 55 37 75 50 75
11 0 19 7 19 15 0 12 -18 15 -105 15 -87 0 -105 -3 -105 -15 0 -9 9 -15 25
-15 14 0 25 -2 25 -5 0 -13 -70 -142 -82 -153 -22 -17 -43 1 -29 26 15 28 14
32 -9 32 -11 0 -20 -4 -20 -9 0 -16 -51 -71 -66 -71 -28 0 -15 39 19 56 103
52 139 154 54 154 -25 0 -42 -9 -69 -37 -88 -91 -91 -216 -4 -198 40 8 55 8
88 -1 23 -5 33 -1 59 27 18 19 48 67 67 107 19 39 38 72 43 72 14 0 12 -9 -22
-92 -32 -76 -33 -103 -4 -114 23 -9 62 22 100 79 18 29 45 66 59 82 25 29 24
26 -9 -55 -54 -130 -34 -140 74 -36 35 33 61 54 58 46 -27 -72 -30 -90 -17
-105 27 -33 67 -8 123 80 32 50 66 92 67 83 0 -4 -13 -41 -30 -83 -16 -42 -30
-78 -30 -80 0 -3 11 -5 26 -5 21 0 29 8 46 50 18 43 24 50 49 50 l28 0 -14
-39 c-29 -83 37 -96 94 -19 34 46 39 68 16 68 -8 0 -15 -3 -15 -7 0 -5 -11
-21 -25 -38 -23 -28 -23 -24 10 55 41 100 42 110 11 110 -19 0 -27 -10 -44
-50 -18 -42 -25 -50 -48 -50 -23 0 -25 3 -19 23 13 41 10 59 -11 73 -18 13
-24 12 -47 -6z m-607 -33 c0 -7 -16 -28 -35 -47 -41 -40 -45 -30 -10 23 26 37
45 48 45 24z"/>
<path d="M3239 959 c-28 -28 -48 -57 -46 -62 8 -24 27 -16 51 20 14 21 26 35
26 32 0 -3 -15 -43 -34 -90 -21 -52 -30 -86 -24 -90 22 -14 46 5 65 52 18 41
25 49 48 49 21 0 26 -4 21 -16 -15 -40 -17 -65 -6 -79 18 -22 43 -18 70 10
l24 26 13 -26 c18 -33 52 -33 92 0 l30 26 3 -23 c3 -21 9 -23 68 -25 80 -2
105 9 137 64 15 27 32 43 44 43 22 0 23 -6 8 -49 -14 -41 6 -67 43 -58 23 6
88 84 88 106 0 20 -28 11 -45 -15 -29 -44 -26 -20 5 49 18 39 36 67 45 67 8 0
15 7 15 15 0 12 -17 15 -89 15 -75 0 -92 -3 -116 -22 -23 -18 -26 -27 -22 -57
3 -29 -1 -43 -22 -68 -18 -22 -31 -29 -40 -24 -9 6 -10 11 -2 15 16 10 13 36
-4 36 -8 0 -24 -15 -35 -32 -27 -45 -25 -25 5 52 30 77 31 86 5 100 -29 16
-99 -18 -154 -74 -24 -25 -48 -46 -54 -46 -5 0 -21 -17 -35 -37 -35 -49 -34
-41 8 58 19 46 35 87 35 91 0 4 -11 8 -26 8 -21 0 -29 -8 -46 -50 -18 -43 -24
-50 -49 -50 -26 0 -28 2 -19 26 15 39 12 62 -11 75 -19 10 -27 5 -70 -42z
m366 -38 c-29 -53 -115 -144 -115 -121 0 32 110 170 136 170 3 0 -7 -22 -21
-49z m275 39 c0 -28 -25 -61 -44 -58 -27 4 -33 38 -10 55 21 15 54 17 54 3z"/>
</g>
</svg>
