<svg width="715" height="447" xmlns="http://www.w3.org/2000/svg">
 <g id="Layer_1">
  <title>Layer 1</title>
  <rect id="svg_1" height="445.99999" width="714.99998" y="0.51748" x="0" stroke="#000" fill="#020256"/>
  <path id="svg_5" d="m0.58714,444.62756l0,-444.62757l714.8752,444.62757l-714.8752,0z" stroke="#000" fill="#6acefc"/>
  <path stroke="#000" id="svg_11" d="m104.1847,318.30694l26.72617,-7.44745l-24.69962,-12.30701l27.72212,-2.28l-21.72043,-16.70891l27.65284,2.95402l-17.91849,-20.46176l26.52698,8.07986l-13.42371,-23.4241l24.37053,12.8895l-8.40064,-25.47111l21.2874,17.2165l-3.0658,-26.57782l17.38154,20.87782l2.38163,-26.63607l12.81748,23.73198l7.75111,-25.67914l7.74245,25.67914l12.80882,-23.73198l2.38163,26.63607l17.3902,-20.87782l-3.07446,26.57782l21.29606,-17.2165l-8.41796,25.47943l24.37053,-12.8895l-13.41505,23.41578l26.51832,-8.07986l-17.92715,20.45344l27.65284,-2.95402l-21.71177,16.71723l27.71346,2.28l-24.69962,12.30701l26.72617,7.44745l-26.72617,7.44745l24.69962,12.30701l-27.71346,2.28l21.72043,16.70891l-27.65284,-2.95402l17.92715,20.46176l-26.51832,-8.07986l13.41505,23.41578l-24.37053,-12.8895l8.4093,25.47943l-21.29606,-17.20818l3.07446,26.5695l-17.3902,-20.87782l-2.38163,26.62775l-12.80882,-23.73198l-7.74245,25.67914l-7.75111,-25.67914l-12.81748,23.73198l-2.38163,-26.62775l-17.38154,20.87782l3.0658,-26.5695l-21.2874,17.20818l8.4093,-25.47943l-24.37053,12.8895l13.42371,-23.41578l-26.52698,8.07986l17.91849,-20.46176l-27.6615,2.95402l21.72043,-16.70891l-27.72212,-2.28l24.70828,-12.30701l-26.73483,-7.44745z" fill="#ffff00"/>
  <path id="svg_14" d="m350.36196,378.44384c0.14018,-1.05834 0.22134,-2.12754 0.22134,-3.20759c0,-18.73539 -20.64398,-33.92126 -46.11326,-33.92126c-19.76599,0 -36.58072,9.16688 -43.13987,22.02982c-4.34571,-3.5061 -10.54333,-5.74762 -17.5009,-5.74762c-13.1183,0 -23.75017,7.82089 -23.75017,17.4708c0,1.13975 0.1697,2.25237 0.45744,3.327c-17.5009,2.12211 -30.89219,13.22115 -30.89219,26.69196c0,14.99048 16.51961,27.13701 36.8906,27.13701l117.12767,0c20.37837,0 36.8906,-12.14652 36.8906,-27.13701c0.00738,-13.30256 -13.02238,-24.32019 -30.19127,-26.64311z" stroke="#000" fill="#eae8e8"/>
  <path id="svg_15" d="m467.81521,330.42457c0.08253,-0.62538 0.13031,-1.25718 0.13031,-1.8954c0,-11.07091 -12.15403,-20.04438 -27.14892,-20.04438c-11.63712,0 -21.5367,5.41679 -25.39836,13.01762c-2.55851,-2.07179 -6.20733,-3.39632 -10.30356,-3.39632c-7.72333,0 -13.98278,4.62143 -13.98278,10.32366c0,0.67349 0.09991,1.33095 0.26932,1.96595c-10.30356,1.25398 -18.18761,7.8125 -18.18761,15.77252c0,8.85801 9.72583,16.03551 21.71914,16.03551l68.95827,0c11.99765,0 21.71914,-7.17749 21.71914,-16.03551c0.00434,-7.86061 -7.66686,-14.37102 -17.77494,-15.74366z" stroke="#000" fill="#dbdbdb"/>
  <path id="svg_20" d="m128.04551,356.40394c0.08678,-0.71198 0.13702,-1.43126 0.13702,-2.15784c0,-12.60381 -12.77961,-22.81976 -28.5463,-22.81976c-12.23609,0 -22.64521,6.16681 -26.70564,14.82006c-2.6902,-2.35865 -6.52683,-3.86658 -10.83389,-3.86658c-8.12085,0 -14.70249,5.26132 -14.70249,11.75309c0,0.76674 0.10505,1.51523 0.28318,2.23816c-10.83389,1.4276 -19.12374,8.89423 -19.12374,17.95641c0,10.08451 10.22643,18.25581 22.83704,18.25581l72.5076,0c12.61518,0 22.83704,-8.1713 22.83704,-18.25581c0.00457,-8.949 -8.06148,-16.36085 -18.68983,-17.92355z" stroke="#000" fill="#e0e0e0"/>
  <path id="svg_23" d="m577.5901,191.49386l0,0c-57.50547,0 -104.1321,-31.81545 -104.1321,-71.07429c0,-39.25381 46.62664,-71.07429 104.1321,-71.07429l0,0c-32.7724,16.7778 -52.06248,43.11129 -52.06248,71.07429s19.29008,54.29146 52.06248,71.07429z" stroke="#000" fill="#3dffff"/>
  <path id="svg_26" d="m194.65302,33.61592l7.26056,0l2.24357,-7.26052l2.24357,7.26052l7.26056,0l-5.87391,4.4872l2.24368,7.26052l-5.87391,-4.48732l-5.87391,4.48732l2.24369,-7.26052l-5.87391,-4.4872z" stroke="#000" fill="#3dffff"/>
  <path id="svg_28" d="m338.55783,133.24051l8.83894,0l2.7313,-8.20754l2.7313,8.20754l8.83894,0l-7.15084,5.07248l2.73144,8.20754l-7.15085,-5.07262l-7.15084,5.07262l2.73144,-8.20754l-7.15084,-5.07248z" stroke="#000" fill="#3dffff"/>
  <path id="svg_29" d="m294.15289,55.94309l7.57623,0l2.34111,-8.20755l2.34112,8.20755l7.57623,0l-6.12929,5.07249l2.34123,8.20755l-6.12929,-5.07262l-6.12929,5.07262l2.34124,-8.20755l-6.12929,-5.07249z" stroke="#000" fill="#3dffff"/>
  <path id="svg_30" d="m619.78886,273.53261l13.2584,0l4.09695,-11.99564l4.09695,11.99564l13.25839,0l-10.72625,7.41363l4.09716,11.99564l-10.72625,-7.41383l-10.72625,7.41383l4.09716,-11.99564l-10.72625,-7.41363z" stroke="#000" fill="#3dffff"/>
  <path id="svg_31" d="m658.43761,181.94796l8.20761,0l2.53621,-7.5762l2.53621,7.5762l8.2076,0l-6.64008,4.68229l2.53634,7.5762l-6.64008,-4.68242l-6.64008,4.68242l2.53635,-7.5762l-6.64008,-4.68229z" stroke="#000" fill="#3dffff"/>
 </g>

</svg>